<svg width="20" height="20" viewBox="0 0 20 20" fill="none" xmlns="http://www.w3.org/2000/svg">
<circle cx="10" cy="10" r="2.5" stroke="#999999" stroke-width="1.5"/>
<path d="M11.4725 1.79484C11.1662 1.66797 10.7779 1.66797 10.0014 1.66797C9.2248 1.66797 8.83652 1.66797 8.53023 1.79484C8.12185 1.96399 7.7974 2.28845 7.62824 2.69683C7.55102 2.88325 7.5208 3.10005 7.50898 3.41629C7.4916 3.88104 7.25326 4.31121 6.8505 4.54374C6.44775 4.77627 5.95604 4.76759 5.54488 4.55027C5.26509 4.40239 5.06222 4.32015 4.86216 4.29382C4.42392 4.23612 3.9807 4.35488 3.63002 4.62397C3.367 4.82579 3.17286 5.16205 2.78458 5.83458C2.39629 6.50711 2.20215 6.84337 2.15888 7.17206C2.10118 7.6103 2.21994 8.05352 2.48903 8.4042C2.61185 8.56427 2.78447 8.69882 3.05237 8.86716C3.44622 9.11462 3.69963 9.53618 3.6996 10.0013C3.69957 10.4664 3.44617 10.8879 3.05237 11.1353C2.78442 11.3037 2.61178 11.4383 2.48895 11.5983C2.21986 11.949 2.1011 12.3922 2.1588 12.8305C2.20207 13.1592 2.39621 13.4954 2.7845 14.168C3.17278 14.8405 3.36692 15.1768 3.62994 15.3786C3.98062 15.6477 4.42384 15.7664 4.86208 15.7087C5.06213 15.6824 5.26498 15.6002 5.54475 15.4523C5.95594 15.235 6.44768 15.2263 6.85047 15.4588C7.25325 15.6914 7.4916 16.1216 7.50898 16.5864C7.52081 16.9026 7.55103 17.1194 7.62824 17.3058C7.7974 17.7142 8.12185 18.0386 8.53023 18.2078C8.83652 18.3346 9.2248 18.3346 10.0014 18.3346C10.7779 18.3346 11.1662 18.3346 11.4725 18.2078C11.8809 18.0386 12.2054 17.7142 12.3745 17.3058C12.4517 17.1193 12.4819 16.9025 12.4938 16.5863C12.5111 16.1216 12.7495 15.6914 13.1522 15.4588C13.555 15.2263 14.0467 15.2349 14.4579 15.4523C14.7377 15.6001 14.9405 15.6823 15.1406 15.7087C15.5788 15.7664 16.022 15.6476 16.3727 15.3785C16.6357 15.1767 16.8299 14.8404 17.2182 14.1679C17.6065 13.4954 17.8006 13.1591 17.8439 12.8304C17.9016 12.3922 17.7828 11.949 17.5137 11.5983C17.3909 11.4382 17.2183 11.3037 16.9503 11.1353C16.5565 10.8879 16.3031 10.4663 16.3031 10.0012C16.3032 9.53618 16.5566 9.11471 16.9503 8.86729C17.2183 8.69892 17.391 8.56435 17.5138 8.40426C17.7829 8.05358 17.9016 7.61036 17.844 7.17211C17.8007 6.84343 17.6065 6.50716 17.2183 5.83464C16.83 5.16211 16.6358 4.82584 16.3728 4.62403C16.0221 4.35494 15.5789 4.23618 15.1407 4.29387C14.9406 4.32021 14.7378 4.40243 14.458 4.5503C14.0468 4.76763 13.5551 4.77632 13.1523 4.54377C12.7495 4.31122 12.5112 3.88102 12.4938 3.41625C12.4819 3.10003 12.4517 2.88324 12.3745 2.69683C12.2054 2.28845 11.8809 1.96399 11.4725 1.79484Z" stroke="#999999" stroke-width="1.5"/>
</svg>
